subject20_rfs_trial11_ground_reaction
version=1
nRows=27
nColumns=19
inDegrees=no
endheader
time	ground_force_r_vx	ground_force_r_vy	ground_force_r_vz	ground_force_r_px	ground_force_r_py	ground_force_r_pz	ground_torque_r_x	ground_torque_r_y	ground_torque_r_z	ground_force_l_vx	ground_force_l_vy	ground_force_l_vz	ground_force_l_px	ground_force_l_py	ground_force_l_pz	ground_torque_l_x	ground_torque_l_y	ground_torque_l_z
1.086500	0.000000	0.000000	0.000000	23720.532967	0.000000	19968.956126	0.000000	0.000000	0.000000	0.000000	0.000000	0.000000	257.804848	0.000000	462.143829	0.000000	0.000000	0.000000
1.087000	0.000000	0.000000	0.000000	23783.779498	0.000000	20022.634055	0.000000	0.000000	0.000000	0.000000	0.000000	0.000000	260.151733	0.000000	466.427542	0.000000	0.000000	0.000000
1.087500	0.000000	0.000000	0.000000	23847.138354	0.000000	20076.408093	0.000000	0.000000	0.000000	0.000000	0.000000	0.000000	262.512934	0.000000	470.737649	0.000000	0.000000	0.000000
1.088000	0.000000	0.000000	0.000000	23910.609634	0.000000	20130.278327	0.000000	0.000000	0.000000	0.000000	0.000000	0.000000	264.888494	0.000000	475.074229	0.000000	0.000000	0.000000
1.088500	0.000000	0.000000	0.000000	23974.193439	0.000000	20184.244842	0.000000	0.000000	0.000000	0.000000	0.000000	0.000000	267.278457	0.000000	479.437364	0.000000	0.000000	0.000000
1.089000	0.000000	0.000000	0.000000	24037.889867	0.000000	20238.307724	0.000000	0.000000	0.000000	0.000000	0.000000	0.000000	269.682868	0.000000	483.827135	0.000000	0.000000	0.000000
1.089500	0.000000	0.000000	0.000000	24101.699020	0.000000	20292.467060	0.000000	0.000000	0.000000	0.000000	0.000000	0.000000	272.101768	0.000000	488.243624	0.000000	0.000000	0.000000
1.090000	0.000000	0.000000	0.000000	24165.620995	0.000000	20346.722935	0.000000	0.000000	0.000000	0.000000	0.000000	0.000000	274.535202	0.000000	492.686911	0.000000	0.000000	0.000000
1.090500	0.000000	0.000000	0.000000	24229.655894	0.000000	20401.075435	0.000000	0.000000	0.000000	0.000000	0.000000	0.000000	276.983214	0.000000	497.157077	0.000000	0.000000	0.000000
1.091000	0.000000	0.000000	0.000000	24293.803815	0.000000	20455.524646	0.000000	0.000000	0.000000	0.000000	0.000000	0.000000	279.445847	0.000000	501.654203	0.000000	0.000000	0.000000
1.091500	0.000000	0.000000	0.000000	24358.064858	0.000000	20510.070654	0.000000	0.000000	0.000000	0.000000	0.000000	0.000000	281.923144	0.000000	506.178371	0.000000	0.000000	0.000000
1.092000	0.000000	0.000000	0.000000	24422.439123	0.000000	20564.713546	0.000000	0.000000	0.000000	0.000000	0.000000	0.000000	284.415150	0.000000	510.729662	0.000000	0.000000	0.000000
1.092500	0.000000	0.000000	0.000000	24486.926709	0.000000	20619.453406	0.000000	0.000000	0.000000	0.000000	0.000000	0.000000	286.921908	0.000000	515.308157	0.000000	0.000000	0.000000
1.093000	0.000000	0.000000	0.000000	24551.527717	0.000000	20674.290322	0.000000	0.000000	0.000000	0.000000	0.000000	0.000000	289.443461	0.000000	519.913936	0.000000	0.000000	0.000000
1.093500	0.000000	0.000000	0.000000	24616.242246	0.000000	20729.224378	0.000000	0.000000	0.000000	0.000000	0.000000	0.000000	291.979853	0.000000	524.547082	0.000000	0.000000	0.000000
1.094000	0.000000	0.000000	0.000000	24681.070395	0.000000	20784.255662	0.000000	0.000000	0.000000	0.000000	0.000000	0.000000	294.531128	0.000000	529.207674	0.000000	0.000000	0.000000
1.094500	0.000000	0.000000	0.000000	24746.012264	0.000000	20839.384258	0.000000	0.000000	0.000000	0.000000	0.000000	0.000000	297.097329	0.000000	533.895795	0.000000	0.000000	0.000000
1.095000	0.000000	0.000000	0.000000	24811.067953	0.000000	20894.610253	0.000000	0.000000	0.000000	0.000000	0.000000	0.000000	299.678500	0.000000	538.611525	0.000000	0.000000	0.000000
1.095500	0.000000	0.000000	0.000000	24876.237561	0.000000	20949.933733	0.000000	0.000000	0.000000	0.000000	0.000000	0.000000	302.274685	0.000000	543.354945	0.000000	0.000000	0.000000
1.096000	0.000000	0.000000	0.000000	24941.521189	0.000000	21005.354784	0.000000	0.000000	0.000000	0.000000	0.000000	0.000000	304.885926	0.000000	548.126137	0.000000	0.000000	0.000000
1.096500	0.000000	0.000000	0.000000	25006.918935	0.000000	21060.873492	0.000000	0.000000	0.000000	0.000000	0.000000	0.000000	307.512268	0.000000	552.925181	0.000000	0.000000	0.000000
1.097000	0.000000	0.000000	0.000000	25072.430900	0.000000	21116.489943	0.000000	0.000000	0.000000	0.000000	0.000000	0.000000	310.153755	0.000000	557.752159	0.000000	0.000000	0.000000
1.097500	0.000000	0.000000	0.000000	25138.057183	0.000000	21172.204222	0.000000	0.000000	0.000000	0.000000	0.000000	0.000000	312.810429	0.000000	562.607152	0.000000	0.000000	0.000000
1.098000	0.000000	0.000000	0.000000	25203.797883	0.000000	21228.016416	0.000000	0.000000	0.000000	0.000000	0.000000	0.000000	315.482335	0.000000	567.490240	0.000000	0.000000	0.000000
1.098500	0.000000	0.000000	0.000000	25269.653101	0.000000	21283.926611	0.000000	0.000000	0.000000	0.000000	0.000000	0.000000	318.169516	0.000000	572.401506	0.000000	0.000000	0.000000
1.099000	0.000000	0.000000	0.000000	25335.622936	0.000000	21339.934892	0.000000	0.000000	0.000000	0.000000	0.000000	0.000000	320.872016	0.000000	577.341030	0.000000	0.000000	0.000000
1.099500	0.000000	0.000000	0.000000	25401.707488	0.000000	21396.041346	0.000000	0.000000	0.000000	0.000000	0.000000	0.000000	323.589878	0.000000	582.308892	0.000000	0.000000	0.000000
